<svg width="36" height="36" viewBox="0 0 36 36" fill="none" xmlns="http://www.w3.org/2000/svg">
<path d="M0 8C0 3.58172 3.58172 0 8 0H28C32.4183 0 36 3.58172 36 8V28C36 32.4183 32.4183 36 28 36H8C3.58172 36 0 32.4183 0 28V8Z" fill="url(#paint0_linear_3797_5498)"/>
<path d="M13.8874 18.3222C16.9297 17.5993 19.7924 17.3979 23.5483 19.5704C27.3042 21.7428 26.0541 27 22.0765 27C18.0989 27 17.3576 25.1522 14.2792 24.2753C12.2269 23.6907 10.0674 23.4176 7.80078 23.4561C9.83042 20.5154 11.8593 18.8041 13.8874 18.3222ZM13.7051 11.1107C15.9014 8.93491 20.144 8.28501 23.7517 9.90206C26.1569 10.9801 27.7811 13.1895 28.6243 16.5302C27.236 15.867 25.2386 15.6202 22.6321 15.7898C18.7224 16.0442 16.367 17.2705 14.3328 16.5302C12.2987 15.7898 11.5088 13.2865 13.7051 11.1107Z" fill="white"/>
<defs>
<linearGradient id="paint0_linear_3797_5498" x1="18" y1="36" x2="27.6656" y2="4.1757e-07" gradientUnits="userSpaceOnUse">
<stop stop-color="#0D66FF"/>
<stop offset="1" stop-color="#4789FF"/>
</linearGradient>
</defs>
</svg>
